# Made in Blockbench 4.12.4
mtllib dyescrapia_plant.mtl

o cube
v 0.8472720848154587 0.9374999999999996 0.8321912082014838
v 0.8472720848154587 -0.062499999999998 0.8321912082014838
v 0.14016530362891283 1 0.1250844270149381
v 0.18435947745307185 1 0.8321912082014836
v 0.18435947745307185 0 0.8321912082014836
v 0.8914662586396177 1 0.12508442701493816
v 0.26616518114708637 0.5694320439671248 0.4916190482687743
v 0.25732634638225454 0.9854854345603971 0.9477911049419772
v 0.7734261138405519 0.9854854345603971 0.9477911049419776
v 0.773426113840552 0.5694320439671248 0.4916190482687744
v 0.7653762301114027 0.525237870142965 0.5429283813087395
v 0.7731887214419741 0.9486740488732118 0.9906481122627103
v 0.2557259088271929 0.9499385659791459 0.9930948634196554
v 0.2742150648762358 0.525237870142965 0.5429283813087393
v 0.2638137301114044 0.7917163864794534 0.003966113431253859
v 0.2638137301114042 0.8494588572614086 -0.019951601091564075
v 0.7638137301114027 0.8494588572614086 -0.019951601091564353
v 0.763813730111403 0.7917163864794534 0.003966113431253637
v 0.7638137301114027 0.8634695300479074 0.17719352577711922
v 0.7638137301114026 0.9212120008298628 0.15327581125430123
v 0.2638137301114044 0.9212120008298628 0.15327581125430123
v 0.26381373011140413 0.8634695300479074 0.17719352577711922
v 0.265376230111404 0.5225570439671248 0.4596006829455961
v 0.26537623011140427 0.876110434560398 0.10604729235232296
v 0.7653762301114029 0.876110434560398 0.10604729235232335
v 0.7653762301114028 0.5225570439671248 0.4596006829455961
v 0.7653762301114027 0.5667512177912841 0.5037948567697551
v 0.7653762301114029 0.9203046083845567 0.15024146617648254
v 0.2653762301114043 0.9203046083845567 0.15024146617648232
v 0.265376230111404 0.5667512177912841 0.503794856769755
v 0.2692548594573545 0.7403648089978588 0.32221308038878804
v 0.2692548594573545 0.5635881137012224 0.4989897756854243
v 0.2692548594573545 0.9171415042944953 0.4989897756854243
v 0.2692548594573543 0.7403648089978588 0.6757664709820608
v 0.7630048594573533 0.7385342263802748 0.32663249777120396
v 0.7630048594573532 0.5617575310836379 0.5034091930678404
v 0.7630048594573532 0.9153109216769111 0.5034091930678404
v 0.7630048594573529 0.7385342263802748 0.6801858883644769
v 0.34127573818931045 0.7385342263802747 0.2546116190392479
v 0.518052433485947 0.5617575310836379 0.2546116190392483
v 0.5180524334859468 0.9153109216769111 0.2546116190392481
v 0.6948291287825835 0.7385342263802748 0.2546116190392483
v 0.5133774479026865 0.5694320439671245 0.7522402483851973
v 0.8669308384959595 0.9229854345603974 0.752240248385197
v 0.8669308384959599 0.9229854345603974 0.2522402483851988
v 0.5133774479026869 0.5694320439671248 0.25224024838519843
v 0.5575716217268459 0.525237870142965 0.2522402483851985
v 0.9111250123201188 0.8787912607362383 0.2522402483851989
v 0.9111250123201183 0.8787912607362383 0.7522402483851975
v 0.5575716217268456 0.525237870142965 0.752240248385197
v 0.018609353849359855 0.7917163864794532 0.7538027483851968
v -0.00530836067345819 0.8494588572614084 0.7538027483851968
v -0.005308360673457968 0.8494588572614084 0.25380274838519823
v 0.018609353849359855 0.7917163864794532 0.253802748385198
v 0.19183676619522555 0.8634695300479074 0.2538027483851983
v 0.16791905167240756 0.9212120008298628 0.2538027483851983
v 0.1679190516724074 0.9212120008298628 0.753802748385197
v 0.19183676619522533 0.8634695300479074 0.7538027483851971
v 0.8404229527194815 0.8665945300479072 0.7506777483851976
v 0.8643406672422996 0.9243370008298626 0.7506777483851975
v 0.8643406672423002 0.9243370008298628 0.25067774838519874
v 0.8404229527194822 0.8665945300479074 0.2506777483851986
v 1.013650365065348 0.7948413864794533 0.2506777483851988
v 1.0375680795881659 0.8525838572614086 0.25067774838519863
v 1.0375680795881657 0.8525838572614086 0.7506777483851979
v 1.0136503650653474 0.7948413864794533 0.7506777483851979
v 0.47424392336370225 0.5225570439671248 0.7522402483851975
v 0.12069053277042946 0.876110434560398 0.7522402483851969
v 0.12069053277042957 0.876110434560398 0.2522402483851983
v 0.4742439233637025 0.5225570439671248 0.25224024838519865
v 0.5184380971878616 0.5667512177912841 0.2522402483851988
v 0.1648847065945887 0.9203046083845567 0.2522402483851981
v 0.16488470659458848 0.9203046083845567 0.7522402483851971
v 0.5184380971878614 0.5667512177912841 0.7522402483851971
v 0.3368563208068943 0.7403648089978588 0.7483616190392465
v 0.5136330161035306 0.5635881137012224 0.7483616190392468
v 0.5136330161035306 0.9171415042944953 0.7483616190392468
v 0.690409711400167 0.740364808997859 0.7483616190392468
v 0.8849941717275368 0.9374999999999984 0.10945942701493944
v 0.8849941717275368 -0.062499999999998 0.10945942701493944
v 0.1778873905409935 -0.062499999999998 0.8165662082014831
v 0.1778873905409935 0.9374999999999984 0.8165662082014831
v 0.8849941717275369 0.9374999999999984 0.8607603820256421
v 0.8849941717275369 -0.062499999999998 0.8607603820256421
v 0.17788739054099312 -0.062499999999998 0.15365360083909846
v 0.17788739054099312 0.9374999999999984 0.15365360083909846
vt 0.125 0.17377343749999996
vt 0.125 0.328125
vt 0 0.328125
vt 0 0.17377343749999996
vt 0.125 0.17377343749999996
vt 0.125 0.328125
vt 0 0.328125
vt 0 0.17377343749999996
vt 0 0.5
vt 0 0.375
vt 0.015625 0.375
vt 0.015625 0.5
vt 0.1875 0.390625
vt 0.1875 0.375
vt 0.140625 0.375
vt 0.140625 0.390625
vt 0.1875 0.390625
vt 0.1875 0.375
vt 0.140625 0.375
vt 0.140625 0.390625
vt 0.1875 0.390625
vt 0.1875 0.375
vt 0.140625 0.375
vt 0.140625 0.390625
vt 0.203125 0.453125
vt 0.203125 0.4375
vt 0.15625 0.4375
vt 0.15625 0.453125
vt 0.125 1
vt 0.125 1
vt 0 1
vt 0 1
vt 0.25 0.5
vt 0.25 0.375
vt 0.296875 0.375
vt 0.296875 0.5
vt 0.5 0.609375
vt 0.5 0.734375
vt 0.546875 0.734375
vt 0.546875 0.609375
vt 0.1875 0.390625
vt 0.1875 0.375
vt 0.140625 0.375
vt 0.140625 0.390625
vt 0.1875 0.390625
vt 0.1875 0.375
vt 0.140625 0.375
vt 0.140625 0.390625
vt 0.25 0.375
vt 0.25 0.5
vt 0.125 0.5
vt 0.125 0.375
vt 0.625 0.734375
vt 0.625 0.859375
vt 0.5 0.859375
vt 0.5 0.734375
vt 0 1
vt 0 0.875
vt 0 0.875
vt 0 1
vt 0.1875 0.390625
vt 0.1875 0.375
vt 0.140625 0.375
vt 0.140625 0.390625
vt 0.1875 0.390625
vt 0.1875 0.375
vt 0.140625 0.375
vt 0.140625 0.390625
vt 0.1875 0.390625
vt 0.1875 0.375
vt 0.140625 0.375
vt 0.140625 0.390625
vt 0.49259690463264627 0.5566992393712087
vt 0.5526757606287913 0.5394719046326463
vt 0.5699030953673537 0.5995507606287913
vt 0.5098242393712087 0.6167780953673537
vt 0.453125 0.4375
vt 0.453125 0.5
vt 0.390625 0.5
vt 0.390625 0.4375
vt 0.515625 0.484375
vt 0.578125 0.484375
vt 0.578125 0.546875
vt 0.515625 0.546875
vt 0.515625 0.4375
vt 0.515625 0.5
vt 0.453125 0.5
vt 0.453125 0.4375
vt 0.515625 0.484375
vt 0.578125 0.484375
vt 0.578125 0.546875
vt 0.515625 0.546875
vt 0.515625 0.4375
vt 0.515625 0.5
vt 0.453125 0.5
vt 0.453125 0.4375
vt 0.125 0.375
vt 0.125 0.5
vt 0 0.5
vt 0 0.375
vt 0.625 0.875
vt 0.625 1
vt 0.5 1
vt 0.5 0.875
vt 0 1
vt 0 0.875
vt 0 0.875
vt 0 1
vt 0.1875 0.390625
vt 0.1875 0.375
vt 0.140625 0.375
vt 0.140625 0.390625
vt 0.1875 0.390625
vt 0.1875 0.375
vt 0.140625 0.375
vt 0.140625 0.390625
vt 0.1875 0.390625
vt 0.1875 0.375
vt 0.140625 0.375
vt 0.140625 0.390625
vt 0.203125 0.453125
vt 0.203125 0.4375
vt 0.15625 0.4375
vt 0.15625 0.453125
vt 0.125 1
vt 0.125 1
vt 0 1
vt 0 1
vt 0.25 0.5
vt 0.25 0.375
vt 0.296875 0.375
vt 0.296875 0.5
vt 0.5 0.609375
vt 0.5 0.734375
vt 0.546875 0.734375
vt 0.546875 0.609375
vt 0.1875 0.390625
vt 0.1875 0.375
vt 0.140625 0.375
vt 0.140625 0.390625
vt 0.1875 0.390625
vt 0.1875 0.375
vt 0.140625 0.375
vt 0.140625 0.390625
vt 0.125 1
vt 0.125 1
vt 0 1
vt 0 1
vt 0.203125 0.453125
vt 0.203125 0.4375
vt 0.15625 0.4375
vt 0.15625 0.453125
vt 0.296875 0.5
vt 0.296875 0.375
vt 0.34375 0.375
vt 0.34375 0.5
vt 0.34375 0.375
vt 0.34375 0.5
vt 0.390625 0.5
vt 0.390625 0.375
vt 0.1875 0.390625
vt 0.1875 0.375
vt 0.140625 0.375
vt 0.140625 0.390625
vt 0.1875 0.390625
vt 0.1875 0.375
vt 0.140625 0.375
vt 0.140625 0.390625
vt 0.25 0.375
vt 0.25 0.5
vt 0.125 0.5
vt 0.125 0.375
vt 0.625 0.734375
vt 0.625 0.859375
vt 0.5 0.859375
vt 0.5 0.734375
vt 0 1
vt 0 0.875
vt 0 0.875
vt 0 1
vt 0.1875 0.390625
vt 0.1875 0.375
vt 0.140625 0.375
vt 0.140625 0.390625
vt 0.1875 0.390625
vt 0.1875 0.375
vt 0.140625 0.375
vt 0.140625 0.390625
vt 0.1875 0.390625
vt 0.1875 0.375
vt 0.140625 0.375
vt 0.140625 0.390625
vt 0.49187270279155937 0.5580612649399935
vt 0.5513137350600065 0.5387477027915594
vt 0.5706272972084406 0.5981887350600065
vt 0.5111862649399935 0.6175022972084406
vt 0.4531249999999999 0.4374999999999999
vt 0.4531250000000001 0.5
vt 0.3906250000000001 0.5
vt 0.3906249999999999 0.4375
vt 0.5 0.5
vt 0.5 0.75
vt 0.25 0.75
vt 0.25 0.5
vt 0.25 0.75
vt 0.25 1
vt 0.5 1
vt 0.5 0.75
vt 0.25 0.5
vt 0.25 0.75
vt 0 0.75
vt 0 0.5
vt 0 0.75
vt 0 1
vt 0.25 1
vt 0.25 0.75
vn 5.226309883297639e-16 0.7388495443705904 -0.673870425811499
vn 0.0014734733912192702 -0.7265472838685649 0.6871148908147576
vn -4.647699251739592e-16 0.7867310511093859 0.6172959203010504
vn 8.480885421169968e-17 -0.7576874766983375 -0.6526175661553301
vn 0.9999910399486001 -0.003127701406189282 0.0028526314923771902
vn -0.9992757157793336 -0.003322122460878757 -0.037907879867587105
vn -5.134781488891394e-16 -0.3826834323650892 -0.923879532511287
vn 0 0.382683432365089 0.9238795325112871
vn -2.1243197887715451e-16 0.9238795325112864 -0.38268343236509106
vn 1.6994558310172302e-16 -0.9238795325112868 0.3826834323650896
vn 1 3.6221706189201245e-15 -5.38994801634623e-16
vn -1 5.022970996790589e-15 -6.385466193502055e-16
vn 4.996003610813227e-16 -0.7071067811865474 -0.7071067811865477
vn -2.775557561562908e-16 0.7071067811865475 0.7071067811865477
vn 5.495323605393191e-16 0.7071067811865525 -0.7071067811865427
vn -1.9626155733547273e-17 -0.7071067811865462 0.7071067811865488
vn 1 -1.5700924586837872e-16 1.5700924586837715e-16
vn -1 1.0990647210786496e-15 1.5700924586838139e-16
vn 1 0 3.140184917367561e-16
vn -1 4.710277376051332e-16 -7.850462293418898e-16
vn 1 0 6.280369834735114e-16
vn -1 6.280369834735119e-16 -1.2560739669470227e-15
vn 1.805606327486346e-15 -3.9252311467094373e-16 -1
vn -1.0990647210786447e-15 -3.1401849173675715e-16 1
vn -0.7071067811865472 0.7071067811865479 -3.885780586188072e-16
vn 0.7071067811865479 -0.7071067811865471 6.106226635438391e-16
vn 0.7071067811865507 0.7071067811865445 3.9252311467094693e-16
vn -0.7071067811865535 -0.7071067811865416 -7.654200736083461e-16
vn 8.242985408089861e-16 1.96261557335471e-16 -1
vn -6.358874457669336e-15 4.945791244853927e-15 1
vn -0.9238795325112867 -0.3826834323650899 -4.0939474033052894e-16
vn 0.9238795325112875 0.38268343236508845 3.053113317719193e-16
vn -0.38268343236509095 0.9238795325112863 -1.699455831017236e-16
vn 0.38268343236509017 -0.9238795325112867 0
vn -1.2559869601891257e-15 3.805861439707406e-15 -1
vn -1.773875483312452e-15 1.1879515047537397e-15 1
vn -0.9238795325112862 0.3826834323650913 -7.563394355258912e-16
vn 0.9238795325112876 -0.3826834323650876 4.093947403305287e-16
vn 0.3826834323650885 0.9238795325112874 7.926624935684594e-16
vn -0.3826834323650894 -0.9238795325112871 -7.574656108753907e-16
vn 6.093885670207537e-16 2.6316551726392217e-15 -1
vn -2.59444534649161e-15 -8.480603385502892e-16 1
vn -0.707106781186548 -0.7071067811865471 -1.6653345369377427e-16
vn 0.7071067811865472 0.7071067811865479 1.6653345369377432e-16
vn -0.7071067811865454 0.7071067811865498 -1.5700924586837744e-16
vn 0.7071067811865485 -0.7071067811865466 3.925231146709451e-16
vn -1.3738309013483206e-15 -2.394390999492775e-15 -1
vn -1.4130832128154066e-15 -1.0990647210786514e-15 1
vn 2.0411201962889146e-15 1.5700924586837826e-16 -1
vn -7.850462293418894e-16 -1.4130832128154023e-15 1
vn 0.7071067811865477 0 0.7071067811865474
vn -0.7071067811865477 0 -0.7071067811865474
vn -0.7071067811865475 0 0.7071067811865476
vn 0.7071067811865475 0 -0.7071067811865476
usemtl m_fec0743b-6acb-59e7-57d0-56a1223e02c8
f 7/1/1 8/2/1 9/3/1 10/4/1
f 11/5/2 12/6/2 13/7/2 14/8/2
f 9/9/3 8/10/3 13/11/3 12/12/3
f 7/13/4 10/14/4 11/15/4 14/16/4
f 10/17/5 9/18/5 12/19/5 11/20/5
f 14/21/6 13/22/6 8/23/6 7/24/6
f 15/25/7 16/26/7 17/27/7 18/28/7
f 19/29/8 20/30/8 21/31/8 22/32/8
f 17/33/9 16/34/9 21/35/9 20/36/9
f 15/37/10 18/38/10 19/39/10 22/40/10
f 18/41/11 17/42/11 20/43/11 19/44/11
f 22/45/12 21/46/12 16/47/12 15/48/12
f 23/49/13 24/50/13 25/51/13 26/52/13
f 27/53/14 28/54/14 29/55/14 30/56/14
f 25/57/15 24/58/15 29/59/15 28/60/15
f 23/61/16 26/62/16 27/63/16 30/64/16
f 26/65/17 25/66/17 28/67/17 27/68/17
f 30/69/18 29/70/18 24/71/18 23/72/18
f 32/73/19 31/74/19 33/75/19 34/76/19
f 34/77/20 33/78/20 31/79/20 32/80/20
f 36/81/21 35/82/21 37/83/21 38/84/21
f 38/85/22 37/86/22 35/87/22 36/88/22
f 40/89/23 39/90/23 41/91/23 42/92/23
f 42/93/24 41/94/24 39/95/24 40/96/24
f 43/97/25 44/98/25 45/99/25 46/100/25
f 47/101/26 48/102/26 49/103/26 50/104/26
f 45/105/27 44/106/27 49/107/27 48/108/27
f 43/109/28 46/110/28 47/111/28 50/112/28
f 46/113/29 45/114/29 48/115/29 47/116/29
f 50/117/30 49/118/30 44/119/30 43/120/30
f 51/121/31 52/122/31 53/123/31 54/124/31
f 55/125/32 56/126/32 57/127/32 58/128/32
f 53/129/33 52/130/33 57/131/33 56/132/33
f 51/133/34 54/134/34 55/135/34 58/136/34
f 54/137/35 53/138/35 56/139/35 55/140/35
f 58/141/36 57/142/36 52/143/36 51/144/36
f 59/145/37 60/146/37 61/147/37 62/148/37
f 63/149/38 64/150/38 65/151/38 66/152/38
f 61/153/39 60/154/39 65/155/39 64/156/39
f 59/157/40 62/158/40 63/159/40 66/160/40
f 62/161/41 61/162/41 64/163/41 63/164/41
f 66/165/42 65/166/42 60/167/42 59/168/42
f 67/169/43 68/170/43 69/171/43 70/172/43
f 71/173/44 72/174/44 73/175/44 74/176/44
f 69/177/45 68/178/45 73/179/45 72/180/45
f 67/181/46 70/182/46 71/183/46 74/184/46
f 70/185/47 69/186/47 72/187/47 71/188/47
f 74/189/48 73/190/48 68/191/48 67/192/48
f 76/193/49 75/194/49 77/195/49 78/196/49
f 78/197/50 77/198/50 75/199/50 76/200/50
f 80/201/51 79/202/51 82/203/51 81/204/51
f 81/205/52 82/206/52 79/207/52 80/208/52
f 84/209/53 83/210/53 86/211/53 85/212/53
f 85/213/54 86/214/54 83/215/54 84/216/54