# Made in Blockbench 4.12.4
mtllib dyescrapia_plant_r.mtl

o cube
v 0.4957467419275561 0.9374999999999983 0.9599485081303742
v 0.4957467419275561 -0.06249999999999534 0.9599485081303742
v 0.49574674192755613 0.9999999999999987 -0.04005149186962009
v 0.026996741927558743 0.9999999999999987 0.49119850813037663
v 0.026996741927558743 2.6645352591003757e-15 0.49119850813037663
v 1.0269967419275523 0.9999999999999987 0.4911985081303769
v 0.32566299352110106 0.5694320439671254 0.3082229921803841
v -0.0031493611403338173 0.9854854345603957 0.6245353468418189
v 0.3617882841982276 0.9854854345603957 0.9894729921803792
v 0.6843506388596621 0.5694320439671254 0.6669106375189455
v 0.6423773341562993 0.5252378701429656 0.6974996874770188
v 0.3313159419255395 0.9486740488732112 1.0196096109033936
v -0.036315636221187164 0.9499385659791459 0.6554382614265727
v 0.29507394356302763 0.5252378701429656 0.3501962968837471
v 0.6688229636372733 0.7917163864794533 -0.03826243188170597
v 0.6857353417668417 0.8494588572614081 -0.05517481001127433
v 1.039288732360113 0.8494588572614081 0.29837858058199707
v 1.0223763542305446 0.7917163864794533 0.31529095871156554
v 0.8998860762733852 0.8634695300479074 0.4377812366687248
v 0.9167984544029542 0.9212120008298614 0.4208688585391564
v 0.5632450638096825 0.9212120008298614 0.06731546794588494
v 0.5463326856801138 0.8634695300479074 0.08422784607545347
v 0.34774552413627313 0.5225570439671254 0.28502471631050136
v 0.5977455241362722 0.8761104345603974 0.03502471631050308
v 0.9512989147295432 0.8761104345603974 0.3885781069037749
v 0.7012989147295448 0.5225570439671254 0.6385781069037733
v 0.6700489147295452 0.5667512177912848 0.6698281069037728
v 0.9200489147295438 0.920304608384556 0.41982810690377476
v 0.5664955241362722 0.920304608384556 0.0662747163105033
v 0.31649552413627347 0.5667512177912848 0.3162747163105012
v 0.44763583466738494 0.7403648089978588 0.19061961600385124
v 0.32263583466738577 0.5635881137012231 0.3156196160038506
v 0.32263583466738577 0.9171415042944941 0.3156196160038506
v 0.19763583466738632 0.7403648089978588 0.4406196160038497
v 0.7936448078782405 0.7385342263802748 0.5428785892147072
v 0.6686448078782414 0.5617575310836386 0.6678785892147063
v 0.6686448078782414 0.9153109216769111 0.6678785892147063
v 0.5436448078782419 0.7385342263802748 0.7928785892147054
v 0.5463637381441449 0.7385342263802747 0.19374461600385134
v 0.671363738144144 0.5617575310836386 0.31874461600385084
v 0.671363738144144 0.9153109216769111 0.3187446160038507
v 0.7963637381441431 0.7385342263802748 0.4437446160038503
v 0.31618144581318464 0.5694320439671252 0.6673154803190644
v 0.5661814458131836 0.9229854345603961 0.9173154803190633
v 0.9197348364064548 0.9229854345603961 0.5637620897257919
v 0.6697348364064567 0.5694320439671254 0.313762089725793
v 0.7009848364064564 0.5252378701429656 0.3450120897257928
v 0.9509848364064546 0.8787912607362376 0.5950120897257914
v 0.5974314458131829 0.8787912607362376 0.9485654803190628
v 0.3474314458131845 0.5252378701429656 0.6985654803190641
v -0.03477728295226845 0.791716386479453 0.3185664602448187
v -0.05168966108183726 0.8494588572614081 0.30165408211524986
v 0.3018637295114346 0.8494588572614081 -0.0518993084780216
v 0.31877610764100295 0.791716386479453 -0.03498693034845357
v 0.44126638559816256 0.8634695300479074 0.08750334760870626
v 0.42435400746859386 0.9212120008298614 0.07059096947913779
v 0.07080061687532235 0.9212120008298614 0.42414436007240935
v 0.08771299500489038 0.8634695300479074 0.44105673820197794
v 0.548542394371321 0.8665945300479072 0.8974667201859933
v 0.5654547725008898 0.9243370008298613 0.914379098315562
v 0.919008163094162 0.9243370008298615 0.5608257077222907
v 0.9020957849645935 0.8665945300479074 0.5439133295927221
v 1.0245860629217534 0.794841386479453 0.6664036075498818
v 1.041498441051322 0.8525838572614083 0.6833159856794502
v 0.6879450504580491 0.8525838572614083 1.0368693762727217
v 0.6710326723284804 0.794841386479453 1.019956998143153
v 0.2885098652399387 0.5225570439671254 0.6396438997458187
v 0.038509865239940766 0.8761104345603974 0.3896438997458197
v 0.39206325583321266 0.8761104345603974 0.03609050915254847
v 0.6420632558332107 0.5225570439671254 0.28609050915254713
v 0.6733132558332103 0.5667512177912848 0.31734050915254713
v 0.4233132558332122 0.9203046083845559 0.06734050915254797
v 0.0697598652399401 0.920304608384556 0.4208938997458197
v 0.3197598652399387 0.5667512177912848 0.6708938997458185
v 0.19410476493328888 0.7403648089978588 0.5397535892147067
v 0.3191047649332879 0.5635881137012231 0.6647535892147063
v 0.3191047649332878 0.9171415042944941 0.6647535892147063
v 0.4441047649332872 0.740364808997859 0.7897535892147052
v 0.8713972194329044 0.9374999999999953 0.11554803062502828
v 0.8713972194329044 -0.06249999999999534 0.11554803062502828
v 0.1642904382463664 -0.06249999999999534 0.8226548118115664
v 0.1642904382463664 0.9374999999999953 0.8226548118115664
v 0.871397219432904 0.9374999999999953 0.8668489856357251
v 0.871397219432904 -0.06249999999999534 0.8668489856357251
v 0.1642904382463659 -0.06249999999999534 0.1597422044491873
v 0.1642904382463659 0.9374999999999953 0.1597422044491873
vt 0.125 0.17377343749999996
vt 0.125 0.328125
vt 0 0.328125
vt 0 0.17377343749999996
vt 0.125 0.17377343749999996
vt 0.125 0.328125
vt 0 0.328125
vt 0 0.17377343749999996
vt 0 0.5
vt 0 0.375
vt 0.015625 0.375
vt 0.015625 0.5
vt 0.1875 0.390625
vt 0.1875 0.375
vt 0.140625 0.375
vt 0.140625 0.390625
vt 0.1875 0.390625
vt 0.1875 0.375
vt 0.140625 0.375
vt 0.140625 0.390625
vt 0.1875 0.390625
vt 0.1875 0.375
vt 0.140625 0.375
vt 0.140625 0.390625
vt 0.203125 0.453125
vt 0.203125 0.4375
vt 0.15625 0.4375
vt 0.15625 0.453125
vt 0.125 1
vt 0.125 1
vt 0 1
vt 0 1
vt 0.25 0.5
vt 0.25 0.375
vt 0.296875 0.375
vt 0.296875 0.5
vt 0.5 0.609375
vt 0.5 0.734375
vt 0.546875 0.734375
vt 0.546875 0.609375
vt 0.1875 0.390625
vt 0.1875 0.375
vt 0.140625 0.375
vt 0.140625 0.390625
vt 0.1875 0.390625
vt 0.1875 0.375
vt 0.140625 0.375
vt 0.140625 0.390625
vt 0.25 0.375
vt 0.25 0.5
vt 0.125 0.5
vt 0.125 0.375
vt 0.625 0.734375
vt 0.625 0.859375
vt 0.5 0.859375
vt 0.5 0.734375
vt 0 1
vt 0 0.875
vt 0 0.875
vt 0 1
vt 0.1875 0.390625
vt 0.1875 0.375
vt 0.140625 0.375
vt 0.140625 0.390625
vt 0.1875 0.390625
vt 0.1875 0.375
vt 0.140625 0.375
vt 0.140625 0.390625
vt 0.1875 0.390625
vt 0.1875 0.375
vt 0.140625 0.375
vt 0.140625 0.390625
vt 0.49259690463264627 0.5566992393712087
vt 0.5526757606287913 0.5394719046326463
vt 0.5699030953673537 0.5995507606287913
vt 0.5098242393712087 0.6167780953673537
vt 0.453125 0.4375
vt 0.453125 0.5
vt 0.390625 0.5
vt 0.390625 0.4375
vt 0.515625 0.484375
vt 0.578125 0.484375
vt 0.578125 0.546875
vt 0.515625 0.546875
vt 0.515625 0.4375
vt 0.515625 0.5
vt 0.453125 0.5
vt 0.453125 0.4375
vt 0.515625 0.484375
vt 0.578125 0.484375
vt 0.578125 0.546875
vt 0.515625 0.546875
vt 0.515625 0.4375
vt 0.515625 0.5
vt 0.453125 0.5
vt 0.453125 0.4375
vt 0.125 0.375
vt 0.125 0.5
vt 0 0.5
vt 0 0.375
vt 0.625 0.875
vt 0.625 1
vt 0.5 1
vt 0.5 0.875
vt 0 1
vt 0 0.875
vt 0 0.875
vt 0 1
vt 0.1875 0.390625
vt 0.1875 0.375
vt 0.140625 0.375
vt 0.140625 0.390625
vt 0.1875 0.390625
vt 0.1875 0.375
vt 0.140625 0.375
vt 0.140625 0.390625
vt 0.1875 0.390625
vt 0.1875 0.375
vt 0.140625 0.375
vt 0.140625 0.390625
vt 0.203125 0.453125
vt 0.203125 0.4375
vt 0.15625 0.4375
vt 0.15625 0.453125
vt 0.125 1
vt 0.125 1
vt 0 1
vt 0 1
vt 0.25 0.5
vt 0.25 0.375
vt 0.296875 0.375
vt 0.296875 0.5
vt 0.5 0.609375
vt 0.5 0.734375
vt 0.546875 0.734375
vt 0.546875 0.609375
vt 0.1875 0.390625
vt 0.1875 0.375
vt 0.140625 0.375
vt 0.140625 0.390625
vt 0.1875 0.390625
vt 0.1875 0.375
vt 0.140625 0.375
vt 0.140625 0.390625
vt 0.125 1
vt 0.125 1
vt 0 1
vt 0 1
vt 0.203125 0.453125
vt 0.203125 0.4375
vt 0.15625 0.4375
vt 0.15625 0.453125
vt 0.296875 0.5
vt 0.296875 0.375
vt 0.34375 0.375
vt 0.34375 0.5
vt 0.34375 0.375
vt 0.34375 0.5
vt 0.390625 0.5
vt 0.390625 0.375
vt 0.1875 0.390625
vt 0.1875 0.375
vt 0.140625 0.375
vt 0.140625 0.390625
vt 0.1875 0.390625
vt 0.1875 0.375
vt 0.140625 0.375
vt 0.140625 0.390625
vt 0.25 0.375
vt 0.25 0.5
vt 0.125 0.5
vt 0.125 0.375
vt 0.625 0.734375
vt 0.625 0.859375
vt 0.5 0.859375
vt 0.5 0.734375
vt 0 1
vt 0 0.875
vt 0 0.875
vt 0 1
vt 0.1875 0.390625
vt 0.1875 0.375
vt 0.140625 0.375
vt 0.140625 0.390625
vt 0.1875 0.390625
vt 0.1875 0.375
vt 0.140625 0.375
vt 0.140625 0.390625
vt 0.1875 0.390625
vt 0.1875 0.375
vt 0.140625 0.375
vt 0.140625 0.390625
vt 0.49187270279155937 0.5580612649399935
vt 0.5513137350600065 0.5387477027915594
vt 0.5706272972084406 0.5981887350600065
vt 0.5111862649399935 0.6175022972084406
vt 0.4531249999999999 0.4374999999999999
vt 0.4531250000000001 0.5
vt 0.3906250000000001 0.5
vt 0.3906249999999999 0.4375
vt 0.5 0.5
vt 0.5 0.75
vt 0.25 0.75
vt 0.25 0.5
vt 0.25 0.75
vt 0.25 1
vt 0.5 1
vt 0.5 0.75
vt 0.25 0.5
vt 0.25 0.75
vt 0 0.75
vt 0 0.5
vt 0 0.75
vt 0 1
vt 0.25 1
vt 0.25 0.75
vn 0.47649834773237615 0.7388495443705909 -0.47649834773237765
vn -0.48482169572254064 -0.7265472838685639 0.48690550177619984
vn -0.436494131243654 0.7867310511093957 0.43649413124365527
vn 0.46147030654989596 -0.7576874766983356 -0.46147030654989546
vn 0.7050833304009532 -0.003127701406193433 0.7091175605459323
vn -0.6797897159878313 -0.003322122460878018 -0.7333995538173844
vn 0.6532814824381894 -0.3826834323650864 -0.6532814824381892
vn -0.6532814824381858 0.38268343236509794 0.653281482438186
vn 0.270598050073097 0.9238795325112877 -0.27059805007309695
vn -0.2705980500730999 -0.9238795325112861 0.2705980500730997
vn 0.7071067811865489 2.2204460492503584e-16 0.7071067811865462
vn -0.7071067811865475 2.294460917558731e-15 -0.7071067811865476
vn 0.5000000000000008 -0.7071067811865476 -0.4999999999999993
vn -0.49999999999999983 0.7071067811865478 0.49999999999999994
vn 0.499999999999996 0.7071067811865541 -0.49999999999999467
vn -0.5000000000000041 -0.7071067811865422 0.5000000000000036
vn 0.7071067811865498 -3.552713678800571e-15 0.7071067811865454
vn -0.7071067811865485 2.6645352591004096e-15 -0.7071067811865467
vn 0.707106781186548 0 0.7071067811865471
vn -0.7071067811865472 1.0547118733939139e-15 -0.7071067811865478
vn 0.7071067811865478 0 0.7071067811865474
vn -0.707106781186547 9.992007221626504e-16 -0.7071067811865481
vn 0.7071067811865483 -2.7755575615628983e-16 -0.7071067811865467
vn -0.7071067811865485 3.885780586188082e-16 0.7071067811865467
vn -0.49999999999999906 0.7071067811865491 -0.4999999999999988
vn 0.5000000000000001 -0.7071067811865471 0.5000000000000006
vn 0.500000000000001 0.7071067811865465 0.5000000000000006
vn -0.5000000000000043 -0.7071067811865407 -0.5000000000000054
vn 0.7071067811865474 2.2204460492503604e-15 -0.7071067811865478
vn -0.7071067811865502 3.108624468950513e-15 0.7071067811865449
vn -0.6532814824381863 -0.38268343236509544 -0.6532814824381871
vn 0.6532814824381864 0.38268343236509633 0.6532814824381863
vn -0.2705980500730965 0.9238795325112881 -0.2705980500730968
vn 0.2705980500730999 -0.9238795325112861 0.2705980500730992
vn 0.7071067811865467 3.92278802034229e-15 -0.7071067811865485
vn -0.7071067811865489 5.6251299914343e-15 0.7071067811865461
vn -0.6532814824381846 0.3826834323651003 -0.6532814824381858
vn 0.6532814824381881 -0.38268343236508684 0.6532814824381902
vn 0.2705980500730949 0.9238795325112886 0.2705980500730961
vn -0.27059805007309906 -0.9238795325112861 -0.27059805007310034
vn 0.707106781186547 1.4802973661669173e-15 -0.707106781186548
vn -0.7071067811865474 3.608224830031799e-15 0.7071067811865478
vn -0.49999999999999983 -0.7071067811865471 -0.5000000000000008
vn 0.4999999999999994 0.7071067811865482 0.4999999999999998
vn -0.499999999999999 0.7071067811865483 -0.4999999999999999
vn 0.5000000000000014 -0.7071067811865451 0.5000000000000021
vn 0.7071067811865478 -1.3322676295502164e-15 -0.7071067811865474
vn -0.7071067811865509 -4.440892098500712e-15 0.7071067811865442
vn 0.7071067811865491 2.2204460492503303e-16 -0.7071067811865459
vn -0.7071067811865478 -2.2204460492503462e-15 0.7071067811865472
vn 0.7071067811865477 0 0.7071067811865475
vn -0.7071067811865477 0 -0.7071067811865475
vn -0.7071067811865475 0 0.7071067811865477
vn 0.7071067811865475 0 -0.7071067811865477
usemtl m_fec0743b-6acb-59e7-57d0-56a1223e02c8
f 7/1/1 8/2/1 9/3/1 10/4/1
f 11/5/2 12/6/2 13/7/2 14/8/2
f 9/9/3 8/10/3 13/11/3 12/12/3
f 7/13/4 10/14/4 11/15/4 14/16/4
f 10/17/5 9/18/5 12/19/5 11/20/5
f 14/21/6 13/22/6 8/23/6 7/24/6
f 15/25/7 16/26/7 17/27/7 18/28/7
f 19/29/8 20/30/8 21/31/8 22/32/8
f 17/33/9 16/34/9 21/35/9 20/36/9
f 15/37/10 18/38/10 19/39/10 22/40/10
f 18/41/11 17/42/11 20/43/11 19/44/11
f 22/45/12 21/46/12 16/47/12 15/48/12
f 23/49/13 24/50/13 25/51/13 26/52/13
f 27/53/14 28/54/14 29/55/14 30/56/14
f 25/57/15 24/58/15 29/59/15 28/60/15
f 23/61/16 26/62/16 27/63/16 30/64/16
f 26/65/17 25/66/17 28/67/17 27/68/17
f 30/69/18 29/70/18 24/71/18 23/72/18
f 32/73/19 31/74/19 33/75/19 34/76/19
f 34/77/20 33/78/20 31/79/20 32/80/20
f 36/81/21 35/82/21 37/83/21 38/84/21
f 38/85/22 37/86/22 35/87/22 36/88/22
f 40/89/23 39/90/23 41/91/23 42/92/23
f 42/93/24 41/94/24 39/95/24 40/96/24
f 43/97/25 44/98/25 45/99/25 46/100/25
f 47/101/26 48/102/26 49/103/26 50/104/26
f 45/105/27 44/106/27 49/107/27 48/108/27
f 43/109/28 46/110/28 47/111/28 50/112/28
f 46/113/29 45/114/29 48/115/29 47/116/29
f 50/117/30 49/118/30 44/119/30 43/120/30
f 51/121/31 52/122/31 53/123/31 54/124/31
f 55/125/32 56/126/32 57/127/32 58/128/32
f 53/129/33 52/130/33 57/131/33 56/132/33
f 51/133/34 54/134/34 55/135/34 58/136/34
f 54/137/35 53/138/35 56/139/35 55/140/35
f 58/141/36 57/142/36 52/143/36 51/144/36
f 59/145/37 60/146/37 61/147/37 62/148/37
f 63/149/38 64/150/38 65/151/38 66/152/38
f 61/153/39 60/154/39 65/155/39 64/156/39
f 59/157/40 62/158/40 63/159/40 66/160/40
f 62/161/41 61/162/41 64/163/41 63/164/41
f 66/165/42 65/166/42 60/167/42 59/168/42
f 67/169/43 68/170/43 69/171/43 70/172/43
f 71/173/44 72/174/44 73/175/44 74/176/44
f 69/177/45 68/178/45 73/179/45 72/180/45
f 67/181/46 70/182/46 71/183/46 74/184/46
f 70/185/47 69/186/47 72/187/47 71/188/47
f 74/189/48 73/190/48 68/191/48 67/192/48
f 76/193/49 75/194/49 77/195/49 78/196/49
f 78/197/50 77/198/50 75/199/50 76/200/50
f 80/201/51 79/202/51 82/203/51 81/204/51
f 81/205/52 82/206/52 79/207/52 80/208/52
f 84/209/53 83/210/53 86/211/53 85/212/53
f 85/213/54 86/214/54 83/215/54 84/216/54